<?xml version="1.0" encoding="UTF-8" standalone="no"?>
<!DOCTYPE svg PUBLIC "-//W3C//DTD SVG 1.1//EN"
 "http://www.w3.org/Graphics/SVG/1.1/DTD/svg11.dtd">
<!-- Generated by graphviz version 2.38.0 (20140413.2041)
 -->
<!-- Title: controllers_diagram Pages: 1 -->
<svg width="1789pt" height="1432pt"
 viewBox="0.00 0.00 1788.88 1431.97" xmlns="http://www.w3.org/2000/svg" xmlns:xlink="http://www.w3.org/1999/xlink">
<g id="graph0" class="graph" transform="scale(1 1) rotate(0) translate(921.508 713.5)">
<title>controllers_diagram</title>
<polygon fill="none" stroke="none" points="-921.508,718.474 -921.508,-713.5 867.368,-713.5 867.368,718.474 -921.508,718.474"/>
<!-- _diagram_info -->
<g id="node1" class="node"><title>_diagram_info</title>
<text text-anchor="start" x="416" y="-216.6" font-family="Times,serif" font-size="13.00">Controllers diagram</text>
<text text-anchor="start" x="416" y="-202.6" font-family="Times,serif" font-size="13.00">Date: Jan 08 2017 &#45; 11:49</text>
<text text-anchor="start" x="416" y="-188.6" font-family="Times,serif" font-size="13.00">Migration version: 20161028191047</text>
<text text-anchor="start" x="416" y="-174.6" font-family="Times,serif" font-size="13.00">Generated by RailRoady 1.5.2</text>
<text text-anchor="start" x="416" y="-160.6" font-family="Times,serif" font-size="13.00">http://railroady.prestonlee.com</text>
</g>
<!-- APIController -->
<g id="node2" class="node"><title>APIController</title>
<path fill="none" stroke="black" d="M624,-511C624,-511 694,-511 694,-511 700,-511 706,-517 706,-523 706,-523 706,-593 706,-593 706,-599 700,-605 694,-605 694,-605 624,-605 624,-605 618,-605 612,-599 612,-593 612,-593 612,-523 612,-523 612,-517 618,-511 624,-511"/>
<text text-anchor="middle" x="659" y="-589.8" font-family="Times,serif" font-size="14.00">APIController</text>
<polyline fill="none" stroke="black" points="612,-582 706,-582 "/>
<polyline fill="none" stroke="black" points="612,-558 706,-558 "/>
<polyline fill="none" stroke="black" points="612,-534 706,-534 "/>
<text text-anchor="start" x="620" y="-518.8" font-family="Times,serif" font-size="14.00">_layout</text>
</g>
<!-- ApplicationController -->
<g id="node3" class="node"><title>ApplicationController</title>
<path fill="none" stroke="black" d="M-466.289,-115.882C-466.289,-115.882 -354.289,-115.882 -354.289,-115.882 -348.289,-115.882 -342.289,-121.882 -342.289,-127.882 -342.289,-127.882 -342.289,-197.882 -342.289,-197.882 -342.289,-203.882 -348.289,-209.882 -354.289,-209.882 -354.289,-209.882 -466.289,-209.882 -466.289,-209.882 -472.289,-209.882 -478.289,-203.882 -478.289,-197.882 -478.289,-197.882 -478.289,-127.882 -478.289,-127.882 -478.289,-121.882 -472.289,-115.882 -466.289,-115.882"/>
<text text-anchor="middle" x="-410.289" y="-194.682" font-family="Times,serif" font-size="14.00">ApplicationController</text>
<polyline fill="none" stroke="black" points="-478.289,-186.882 -342.289,-186.882 "/>
<polyline fill="none" stroke="black" points="-478.289,-162.882 -342.289,-162.882 "/>
<polyline fill="none" stroke="black" points="-478.289,-138.882 -342.289,-138.882 "/>
<text text-anchor="start" x="-470.289" y="-123.682" font-family="Times,serif" font-size="14.00">_layout</text>
</g>
<!-- PostsController -->
<g id="node4" class="node"><title>PostsController</title>
<path fill="none" stroke="black" d="M-194.149,-476.543C-194.149,-476.543 -117.149,-476.543 -117.149,-476.543 -111.149,-476.543 -105.149,-482.543 -105.149,-488.543 -105.149,-488.543 -105.149,-572.543 -105.149,-572.543 -105.149,-578.543 -111.149,-584.543 -117.149,-584.543 -117.149,-584.543 -194.149,-584.543 -194.149,-584.543 -200.149,-584.543 -206.149,-578.543 -206.149,-572.543 -206.149,-572.543 -206.149,-488.543 -206.149,-488.543 -206.149,-482.543 -200.149,-476.543 -194.149,-476.543"/>
<text text-anchor="middle" x="-155.649" y="-569.343" font-family="Times,serif" font-size="14.00">PostsController</text>
<polyline fill="none" stroke="black" points="-206.149,-561.543 -105.149,-561.543 "/>
<text text-anchor="start" x="-198.149" y="-546.343" font-family="Times,serif" font-size="14.00">index</text>
<text text-anchor="start" x="-198.149" y="-531.343" font-family="Times,serif" font-size="14.00">show</text>
<polyline fill="none" stroke="black" points="-206.149,-523.543 -105.149,-523.543 "/>
<polyline fill="none" stroke="black" points="-206.149,-499.543 -105.149,-499.543 "/>
<text text-anchor="start" x="-198.149" y="-484.343" font-family="Times,serif" font-size="14.00">_layout</text>
</g>
<!-- ApplicationController&#45;&gt;PostsController -->
<g id="edge1" class="edge"><title>ApplicationController&#45;&gt;PostsController</title>
<path fill="none" stroke="black" d="M-377.52,-210.195C-330.238,-278.463 -243.1,-404.277 -193.257,-476.244"/>
</g>
<!-- HomeController -->
<g id="node5" class="node"><title>HomeController</title>
<path fill="none" stroke="black" d="M-808.468,156.238C-808.468,156.238 -726.468,156.238 -726.468,156.238 -720.468,156.238 -714.468,150.238 -714.468,144.238 -714.468,144.238 -714.468,60.2384 -714.468,60.2384 -714.468,54.2384 -720.468,48.2384 -726.468,48.2384 -726.468,48.2384 -808.468,48.2384 -808.468,48.2384 -814.468,48.2384 -820.468,54.2384 -820.468,60.2384 -820.468,60.2384 -820.468,144.238 -820.468,144.238 -820.468,150.238 -814.468,156.238 -808.468,156.238"/>
<text text-anchor="middle" x="-767.468" y="63.4384" font-family="Times,serif" font-size="14.00">HomeController</text>
<polyline fill="none" stroke="black" points="-820.468,71.2384 -714.468,71.2384 "/>
<text text-anchor="start" x="-812.468" y="86.4384" font-family="Times,serif" font-size="14.00">index</text>
<text text-anchor="start" x="-812.468" y="101.438" font-family="Times,serif" font-size="14.00">show</text>
<polyline fill="none" stroke="black" points="-820.468,109.238 -714.468,109.238 "/>
<polyline fill="none" stroke="black" points="-820.468,133.238 -714.468,133.238 "/>
<text text-anchor="start" x="-812.468" y="148.438" font-family="Times,serif" font-size="14.00">_layout</text>
</g>
<!-- ApplicationController&#45;&gt;HomeController -->
<g id="edge2" class="edge"><title>ApplicationController&#45;&gt;HomeController</title>
<path fill="none" stroke="black" d="M-473.734,-115.789C-542.193,-64.9745 -650.005,15.05 -714.218,62.7125"/>
</g>
<!-- API::V1::PostsController -->
<g id="node8" class="node"><title>API::V1::PostsController</title>
<path fill="none" stroke="black" d="M-774.395,-397.934C-774.395,-397.934 -644.395,-397.934 -644.395,-397.934 -638.395,-397.934 -632.395,-403.934 -632.395,-409.934 -632.395,-409.934 -632.395,-508.934 -632.395,-508.934 -632.395,-514.934 -638.395,-520.934 -644.395,-520.934 -644.395,-520.934 -774.395,-520.934 -774.395,-520.934 -780.395,-520.934 -786.395,-514.934 -786.395,-508.934 -786.395,-508.934 -786.395,-409.934 -786.395,-409.934 -786.395,-403.934 -780.395,-397.934 -774.395,-397.934"/>
<text text-anchor="middle" x="-709.395" y="-505.734" font-family="Times,serif" font-size="14.00">API::V1::PostsController</text>
<polyline fill="none" stroke="black" points="-786.395,-497.934 -632.395,-497.934 "/>
<text text-anchor="start" x="-778.395" y="-482.734" font-family="Times,serif" font-size="14.00">index</text>
<text text-anchor="start" x="-778.395" y="-467.734" font-family="Times,serif" font-size="14.00">show</text>
<polyline fill="none" stroke="black" points="-786.395,-459.934 -632.395,-459.934 "/>
<polyline fill="none" stroke="black" points="-786.395,-435.934 -632.395,-435.934 "/>
<text text-anchor="start" x="-778.395" y="-420.734" font-family="Times,serif" font-size="14.00">_layout</text>
<text text-anchor="start" x="-778.395" y="-405.734" font-family="Times,serif" font-size="14.00">not_found</text>
</g>
<!-- ApplicationController&#45;&gt;API::V1::PostsController -->
<g id="edge3" class="edge"><title>ApplicationController&#45;&gt;API::V1::PostsController</title>
<path fill="none" stroke="black" d="M-458.014,-210.2C-509.308,-261.056 -591.038,-342.088 -647.303,-397.873"/>
</g>
<!-- DeviseController -->
<g id="node15" class="node"><title>DeviseController</title>
<path fill="none" stroke="black" d="M-151.709,373.349C-151.709,373.349 15.2914,373.349 15.2914,373.349 21.2914,373.349 27.2914,367.349 27.2914,361.349 27.2914,361.349 27.2914,-6.65085 27.2914,-6.65085 27.2914,-12.6509 21.2914,-18.6509 15.2914,-18.6509 15.2914,-18.6509 -151.709,-18.6509 -151.709,-18.6509 -157.709,-18.6509 -163.709,-12.6509 -163.709,-6.65085 -163.709,-6.65085 -163.709,361.349 -163.709,361.349 -163.709,367.349 -157.709,373.349 -151.709,373.349"/>
<text text-anchor="middle" x="-68.2086" y="-3.45085" font-family="Times,serif" font-size="14.00">DeviseController</text>
<polyline fill="none" stroke="black" points="-163.709,4.34915 27.2914,4.34915 "/>
<text text-anchor="start" x="-155.709" y="19.5491" font-family="Times,serif" font-size="14.00">_prefixes</text>
<polyline fill="none" stroke="black" points="-163.709,27.3491 27.2914,27.3491 "/>
<text text-anchor="start" x="-155.709" y="42.5491" font-family="Times,serif" font-size="14.00">assert_is_devise_resource!</text>
<text text-anchor="start" x="-155.709" y="57.5491" font-family="Times,serif" font-size="14.00">clean_up_passwords</text>
<text text-anchor="start" x="-155.709" y="72.5491" font-family="Times,serif" font-size="14.00">devise_i18n_options</text>
<text text-anchor="start" x="-155.709" y="87.5491" font-family="Times,serif" font-size="14.00">devise_mapping</text>
<text text-anchor="start" x="-155.709" y="102.549" font-family="Times,serif" font-size="14.00">find_message</text>
<text text-anchor="start" x="-155.709" y="117.549" font-family="Times,serif" font-size="14.00">navigational_formats</text>
<text text-anchor="start" x="-155.709" y="132.549" font-family="Times,serif" font-size="14.00">require_no_authentication</text>
<text text-anchor="start" x="-155.709" y="147.549" font-family="Times,serif" font-size="14.00">resource</text>
<text text-anchor="start" x="-155.709" y="162.549" font-family="Times,serif" font-size="14.00">resource=</text>
<text text-anchor="start" x="-155.709" y="177.549" font-family="Times,serif" font-size="14.00">resource_class</text>
<text text-anchor="start" x="-155.709" y="192.549" font-family="Times,serif" font-size="14.00">resource_name</text>
<text text-anchor="start" x="-155.709" y="207.549" font-family="Times,serif" font-size="14.00">resource_params</text>
<text text-anchor="start" x="-155.709" y="222.549" font-family="Times,serif" font-size="14.00">respond_with_navigational</text>
<text text-anchor="start" x="-155.709" y="237.549" font-family="Times,serif" font-size="14.00">scope_name</text>
<text text-anchor="start" x="-155.709" y="252.549" font-family="Times,serif" font-size="14.00">set_flash_message</text>
<text text-anchor="start" x="-155.709" y="267.549" font-family="Times,serif" font-size="14.00">set_flash_message!</text>
<text text-anchor="start" x="-155.709" y="282.549" font-family="Times,serif" font-size="14.00">set_minimum_password_length</text>
<text text-anchor="start" x="-155.709" y="297.549" font-family="Times,serif" font-size="14.00">signed_in_resource</text>
<text text-anchor="start" x="-155.709" y="312.549" font-family="Times,serif" font-size="14.00">successfully_sent?</text>
<text text-anchor="start" x="-155.709" y="327.549" font-family="Times,serif" font-size="14.00">translation_scope</text>
<text text-anchor="start" x="-155.709" y="342.549" font-family="Times,serif" font-size="14.00">unknown_action!</text>
<polyline fill="none" stroke="black" points="-163.709,350.349 27.2914,350.349 "/>
<text text-anchor="start" x="-155.709" y="365.549" font-family="Times,serif" font-size="14.00">_layout</text>
</g>
<!-- ApplicationController&#45;&gt;DeviseController -->
<g id="edge10" class="edge"><title>ApplicationController&#45;&gt;DeviseController</title>
<path fill="none" stroke="black" d="M-362.724,-115.574C-311.504,-64.6317 -228.653,17.7721 -163.852,82.2224"/>
</g>
<!-- Faalis::AssetsController -->
<g id="node17" class="node"><title>Faalis::AssetsController</title>
<path fill="none" stroke="black" d="M-905.508,-127.188C-905.508,-127.188 -782.508,-127.188 -782.508,-127.188 -776.508,-127.188 -770.508,-133.188 -770.508,-139.188 -770.508,-139.188 -770.508,-209.188 -770.508,-209.188 -770.508,-215.188 -776.508,-221.188 -782.508,-221.188 -782.508,-221.188 -905.508,-221.188 -905.508,-221.188 -911.508,-221.188 -917.508,-215.188 -917.508,-209.188 -917.508,-209.188 -917.508,-139.188 -917.508,-139.188 -917.508,-133.188 -911.508,-127.188 -905.508,-127.188"/>
<text text-anchor="middle" x="-844.008" y="-205.988" font-family="Times,serif" font-size="14.00">Faalis::AssetsController</text>
<polyline fill="none" stroke="black" points="-917.508,-198.188 -770.508,-198.188 "/>
<polyline fill="none" stroke="black" points="-917.508,-174.188 -770.508,-174.188 "/>
<polyline fill="none" stroke="black" points="-917.508,-150.188 -770.508,-150.188 "/>
<text text-anchor="start" x="-909.508" y="-134.988" font-family="Times,serif" font-size="14.00">_layout</text>
</g>
<!-- ApplicationController&#45;&gt;Faalis::AssetsController -->
<g id="edge11" class="edge"><title>ApplicationController&#45;&gt;Faalis::AssetsController</title>
<path fill="none" stroke="black" d="M-478.535,-164.661C-557.974,-166.732 -688.679,-170.139 -770.36,-172.268"/>
</g>
<!-- Faalis::Dashboard::ProfileController -->
<g id="node24" class="node"><title>Faalis::Dashboard::ProfileController</title>
<path fill="none" stroke="black" d="M-525.011,-523.328C-525.011,-523.328 -334.011,-523.328 -334.011,-523.328 -328.011,-523.328 -322.011,-529.328 -322.011,-535.328 -322.011,-535.328 -322.011,-664.328 -322.011,-664.328 -322.011,-670.328 -328.011,-676.328 -334.011,-676.328 -334.011,-676.328 -525.011,-676.328 -525.011,-676.328 -531.011,-676.328 -537.011,-670.328 -537.011,-664.328 -537.011,-664.328 -537.011,-535.328 -537.011,-535.328 -537.011,-529.328 -531.011,-523.328 -525.011,-523.328"/>
<text text-anchor="middle" x="-429.511" y="-661.128" font-family="Times,serif" font-size="14.00">Faalis::Dashboard::ProfileController</text>
<polyline fill="none" stroke="black" points="-537.011,-653.328 -322.011,-653.328 "/>
<text text-anchor="start" x="-529.011" y="-638.128" font-family="Times,serif" font-size="14.00">edit_password</text>
<text text-anchor="start" x="-529.011" y="-623.128" font-family="Times,serif" font-size="14.00">resource_params</text>
<text text-anchor="start" x="-529.011" y="-608.128" font-family="Times,serif" font-size="14.00">show</text>
<text text-anchor="start" x="-529.011" y="-593.128" font-family="Times,serif" font-size="14.00">update</text>
<text text-anchor="start" x="-529.011" y="-578.128" font-family="Times,serif" font-size="14.00">update_password</text>
<polyline fill="none" stroke="black" points="-537.011,-570.328 -322.011,-570.328 "/>
<polyline fill="none" stroke="black" points="-537.011,-546.328 -322.011,-546.328 "/>
<text text-anchor="start" x="-529.011" y="-531.128" font-family="Times,serif" font-size="14.00">_layout</text>
</g>
<!-- ApplicationController&#45;&gt;Faalis::Dashboard::ProfileController -->
<g id="edge13" class="edge"><title>ApplicationController&#45;&gt;Faalis::Dashboard::ProfileController</title>
<path fill="none" stroke="black" d="M-412.364,-210.058C-415.67,-285.197 -422.162,-432.782 -426.141,-523.221"/>
</g>
<!-- Dashboard::ApplicationController -->
<g id="node6" class="node"><title>Dashboard::ApplicationController</title>
<path fill="none" stroke="black" d="M-243,-153.5C-243,-153.5 -65,-153.5 -65,-153.5 -59,-153.5 -53,-159.5 -53,-165.5 -53,-165.5 -53,-234.5 -53,-234.5 -53,-240.5 -59,-246.5 -65,-246.5 -65,-246.5 -243,-246.5 -243,-246.5 -249,-246.5 -255,-240.5 -255,-234.5 -255,-234.5 -255,-165.5 -255,-165.5 -255,-159.5 -249,-153.5 -243,-153.5"/>
<text text-anchor="middle" x="-154" y="-231.3" font-family="Times,serif" font-size="14.00">Dashboard::ApplicationController</text>
<polyline fill="none" stroke="black" points="-255,-223.5 -53,-223.5 "/>
<text text-anchor="start" x="-247" y="-208.3" font-family="Times,serif" font-size="14.00">setup_sidebar</text>
<polyline fill="none" stroke="black" points="-255,-200.5 -53,-200.5 "/>
<polyline fill="none" stroke="black" points="-255,-176.5 -53,-176.5 "/>
<text text-anchor="start" x="-247" y="-161.3" font-family="Times,serif" font-size="14.00">_layout</text>
</g>
<!-- Dashboard::PostsController -->
<g id="node7" class="node"><title>Dashboard::PostsController</title>
<path fill="none" stroke="black" d="M572.5,50C572.5,50 715.5,50 715.5,50 721.5,50 727.5,44 727.5,38 727.5,38 727.5,-32 727.5,-32 727.5,-38 721.5,-44 715.5,-44 715.5,-44 572.5,-44 572.5,-44 566.5,-44 560.5,-38 560.5,-32 560.5,-32 560.5,38 560.5,38 560.5,44 566.5,50 572.5,50"/>
<text text-anchor="middle" x="644" y="-28.8" font-family="Times,serif" font-size="14.00">Dashboard::PostsController</text>
<polyline fill="none" stroke="black" points="560.5,-21 727.5,-21 "/>
<polyline fill="none" stroke="black" points="560.5,3 727.5,3 "/>
<polyline fill="none" stroke="black" points="560.5,27 727.5,27 "/>
<text text-anchor="start" x="568.5" y="42.2" font-family="Times,serif" font-size="14.00">_layout</text>
</g>
<!-- Devise::PasswordsController -->
<g id="node9" class="node"><title>Devise::PasswordsController</title>
<path fill="none" stroke="black" d="M184.37,116.054C184.37,116.054 462.37,116.054 462.37,116.054 468.37,116.054 474.37,110.054 474.37,104.054 474.37,104.054 474.37,-68.9462 474.37,-68.9462 474.37,-74.9462 468.37,-80.9462 462.37,-80.9462 462.37,-80.9462 184.37,-80.9462 184.37,-80.9462 178.37,-80.9462 172.37,-74.9462 172.37,-68.9462 172.37,-68.9462 172.37,104.054 172.37,104.054 172.37,110.054 178.37,116.054 184.37,116.054"/>
<text text-anchor="middle" x="323.37" y="-65.7462" font-family="Times,serif" font-size="14.00">Devise::PasswordsController</text>
<polyline fill="none" stroke="black" points="172.37,-57.9462 474.37,-57.9462 "/>
<text text-anchor="start" x="180.37" y="-42.7462" font-family="Times,serif" font-size="14.00">create</text>
<text text-anchor="start" x="180.37" y="-27.7462" font-family="Times,serif" font-size="14.00">edit</text>
<text text-anchor="start" x="180.37" y="-12.7462" font-family="Times,serif" font-size="14.00">new</text>
<text text-anchor="start" x="180.37" y="2.25381" font-family="Times,serif" font-size="14.00">update</text>
<polyline fill="none" stroke="black" points="172.37,10.0538 474.37,10.0538 "/>
<text text-anchor="start" x="180.37" y="25.2538" font-family="Times,serif" font-size="14.00">after_resetting_password_path_for</text>
<text text-anchor="start" x="180.37" y="40.2538" font-family="Times,serif" font-size="14.00">after_sending_reset_password_instructions_path_for</text>
<text text-anchor="start" x="180.37" y="55.2538" font-family="Times,serif" font-size="14.00">assert_reset_token_passed</text>
<text text-anchor="start" x="180.37" y="70.2538" font-family="Times,serif" font-size="14.00">translation_scope</text>
<text text-anchor="start" x="180.37" y="85.2538" font-family="Times,serif" font-size="14.00">unlockable?</text>
<polyline fill="none" stroke="black" points="172.37,93.0538 474.37,93.0538 "/>
<text text-anchor="start" x="180.37" y="108.254" font-family="Times,serif" font-size="14.00">_layout</text>
</g>
<!-- Devise::ConfirmationsController -->
<g id="node10" class="node"><title>Devise::ConfirmationsController</title>
<path fill="none" stroke="black" d="M23.4285,-89.9645C23.4285,-89.9645 299.428,-89.9645 299.428,-89.9645 305.428,-89.9645 311.428,-95.9645 311.428,-101.965 311.428,-101.965 311.428,-229.965 311.428,-229.965 311.428,-235.965 305.428,-241.965 299.428,-241.965 299.428,-241.965 23.4285,-241.965 23.4285,-241.965 17.4285,-241.965 11.4285,-235.965 11.4285,-229.965 11.4285,-229.965 11.4285,-101.965 11.4285,-101.965 11.4285,-95.9645 17.4285,-89.9645 23.4285,-89.9645"/>
<text text-anchor="middle" x="161.428" y="-226.765" font-family="Times,serif" font-size="14.00">Devise::ConfirmationsController</text>
<polyline fill="none" stroke="black" points="11.4285,-218.965 311.428,-218.965 "/>
<text text-anchor="start" x="19.4285" y="-203.765" font-family="Times,serif" font-size="14.00">create</text>
<text text-anchor="start" x="19.4285" y="-188.765" font-family="Times,serif" font-size="14.00">new</text>
<text text-anchor="start" x="19.4285" y="-173.765" font-family="Times,serif" font-size="14.00">show</text>
<polyline fill="none" stroke="black" points="11.4285,-165.965 311.428,-165.965 "/>
<text text-anchor="start" x="19.4285" y="-150.765" font-family="Times,serif" font-size="14.00">after_confirmation_path_for</text>
<text text-anchor="start" x="19.4285" y="-135.765" font-family="Times,serif" font-size="14.00">after_resending_confirmation_instructions_path_for</text>
<text text-anchor="start" x="19.4285" y="-120.765" font-family="Times,serif" font-size="14.00">translation_scope</text>
<polyline fill="none" stroke="black" points="11.4285,-112.965 311.428,-112.965 "/>
<text text-anchor="start" x="19.4285" y="-97.7645" font-family="Times,serif" font-size="14.00">_layout</text>
</g>
<!-- Devise::RegistrationsController -->
<g id="node11" class="node"><title>Devise::RegistrationsController</title>
<path fill="none" stroke="black" d="M-479.15,593.36C-479.15,593.36 -310.15,593.36 -310.15,593.36 -304.15,593.36 -298.15,587.36 -298.15,581.36 -298.15,581.36 -298.15,288.36 -298.15,288.36 -298.15,282.36 -304.15,276.36 -310.15,276.36 -310.15,276.36 -479.15,276.36 -479.15,276.36 -485.15,276.36 -491.15,282.36 -491.15,288.36 -491.15,288.36 -491.15,581.36 -491.15,581.36 -491.15,587.36 -485.15,593.36 -479.15,593.36"/>
<text text-anchor="middle" x="-394.65" y="291.56" font-family="Times,serif" font-size="14.00">Devise::RegistrationsController</text>
<polyline fill="none" stroke="black" points="-491.15,299.36 -298.15,299.36 "/>
<text text-anchor="start" x="-483.15" y="314.56" font-family="Times,serif" font-size="14.00">cancel</text>
<text text-anchor="start" x="-483.15" y="329.56" font-family="Times,serif" font-size="14.00">create</text>
<text text-anchor="start" x="-483.15" y="344.56" font-family="Times,serif" font-size="14.00">destroy</text>
<text text-anchor="start" x="-483.15" y="359.56" font-family="Times,serif" font-size="14.00">edit</text>
<text text-anchor="start" x="-483.15" y="374.56" font-family="Times,serif" font-size="14.00">new</text>
<text text-anchor="start" x="-483.15" y="389.56" font-family="Times,serif" font-size="14.00">update</text>
<polyline fill="none" stroke="black" points="-491.15,397.36 -298.15,397.36 "/>
<text text-anchor="start" x="-483.15" y="412.56" font-family="Times,serif" font-size="14.00">account_update_params</text>
<text text-anchor="start" x="-483.15" y="427.56" font-family="Times,serif" font-size="14.00">after_inactive_sign_up_path_for</text>
<text text-anchor="start" x="-483.15" y="442.56" font-family="Times,serif" font-size="14.00">after_sign_up_path_for</text>
<text text-anchor="start" x="-483.15" y="457.56" font-family="Times,serif" font-size="14.00">after_update_path_for</text>
<text text-anchor="start" x="-483.15" y="472.56" font-family="Times,serif" font-size="14.00">authenticate_scope!</text>
<text text-anchor="start" x="-483.15" y="487.56" font-family="Times,serif" font-size="14.00">build_resource</text>
<text text-anchor="start" x="-483.15" y="502.56" font-family="Times,serif" font-size="14.00">sign_up</text>
<text text-anchor="start" x="-483.15" y="517.56" font-family="Times,serif" font-size="14.00">sign_up_params</text>
<text text-anchor="start" x="-483.15" y="532.56" font-family="Times,serif" font-size="14.00">translation_scope</text>
<text text-anchor="start" x="-483.15" y="547.56" font-family="Times,serif" font-size="14.00">update_needs_confirmation?</text>
<text text-anchor="start" x="-483.15" y="562.56" font-family="Times,serif" font-size="14.00">update_resource</text>
<polyline fill="none" stroke="black" points="-491.15,570.36 -298.15,570.36 "/>
<text text-anchor="start" x="-483.15" y="585.56" font-family="Times,serif" font-size="14.00">_layout</text>
</g>
<!-- Devise::OmniauthCallbacksController -->
<g id="node12" class="node"><title>Devise::OmniauthCallbacksController</title>
<path fill="none" stroke="black" d="M254.181,429.026C254.181,429.026 455.181,429.026 455.181,429.026 461.181,429.026 467.181,423.026 467.181,417.026 467.181,417.026 467.181,289.026 467.181,289.026 467.181,283.026 461.181,277.026 455.181,277.026 455.181,277.026 254.181,277.026 254.181,277.026 248.181,277.026 242.181,283.026 242.181,289.026 242.181,289.026 242.181,417.026 242.181,417.026 242.181,423.026 248.181,429.026 254.181,429.026"/>
<text text-anchor="middle" x="354.681" y="292.226" font-family="Times,serif" font-size="14.00">Devise::OmniauthCallbacksController</text>
<polyline fill="none" stroke="black" points="242.181,300.026 467.181,300.026 "/>
<text text-anchor="start" x="250.181" y="315.226" font-family="Times,serif" font-size="14.00">failure</text>
<text text-anchor="start" x="250.181" y="330.226" font-family="Times,serif" font-size="14.00">passthru</text>
<polyline fill="none" stroke="black" points="242.181,338.026 467.181,338.026 "/>
<text text-anchor="start" x="250.181" y="353.226" font-family="Times,serif" font-size="14.00">after_omniauth_failure_path_for</text>
<text text-anchor="start" x="250.181" y="368.226" font-family="Times,serif" font-size="14.00">failed_strategy</text>
<text text-anchor="start" x="250.181" y="383.226" font-family="Times,serif" font-size="14.00">failure_message</text>
<text text-anchor="start" x="250.181" y="398.226" font-family="Times,serif" font-size="14.00">translation_scope</text>
<polyline fill="none" stroke="black" points="242.181,406.026 467.181,406.026 "/>
<text text-anchor="start" x="250.181" y="421.226" font-family="Times,serif" font-size="14.00">_layout</text>
</g>
<!-- Faalis::Omniauth::CallbacksController -->
<g id="node18" class="node"><title>Faalis::Omniauth::CallbacksController</title>
<path fill="none" stroke="black" d="M648.368,508.704C648.368,508.704 851.368,508.704 851.368,508.704 857.368,508.704 863.368,502.704 863.368,496.704 863.368,496.704 863.368,427.704 863.368,427.704 863.368,421.704 857.368,415.704 851.368,415.704 851.368,415.704 648.368,415.704 648.368,415.704 642.368,415.704 636.368,421.704 636.368,427.704 636.368,427.704 636.368,496.704 636.368,496.704 636.368,502.704 642.368,508.704 648.368,508.704"/>
<text text-anchor="middle" x="749.868" y="430.904" font-family="Times,serif" font-size="14.00">Faalis::Omniauth::CallbacksController</text>
<polyline fill="none" stroke="black" points="636.368,438.704 863.368,438.704 "/>
<text text-anchor="start" x="644.368" y="453.904" font-family="Times,serif" font-size="14.00">facebook</text>
<polyline fill="none" stroke="black" points="636.368,461.704 863.368,461.704 "/>
<polyline fill="none" stroke="black" points="636.368,485.704 863.368,485.704 "/>
<text text-anchor="start" x="644.368" y="500.904" font-family="Times,serif" font-size="14.00">_layout</text>
</g>
<!-- Devise::OmniauthCallbacksController&#45;&gt;Faalis::Omniauth::CallbacksController -->
<g id="edge12" class="edge"><title>Devise::OmniauthCallbacksController&#45;&gt;Faalis::Omniauth::CallbacksController</title>
<path fill="none" stroke="black" d="M467.397,384.166C520.325,398.788 583.285,416.182 636.317,430.833"/>
</g>
<!-- Devise::SessionsController -->
<g id="node13" class="node"><title>Devise::SessionsController</title>
<path fill="none" stroke="black" d="M-272.238,713.974C-272.238,713.974 -132.238,713.974 -132.238,713.974 -126.238,713.974 -120.238,707.974 -120.238,701.974 -120.238,701.974 -120.238,513.974 -120.238,513.974 -120.238,507.974 -126.238,501.974 -132.238,501.974 -132.238,501.974 -272.238,501.974 -272.238,501.974 -278.238,501.974 -284.238,507.974 -284.238,513.974 -284.238,513.974 -284.238,701.974 -284.238,701.974 -284.238,707.974 -278.238,713.974 -272.238,713.974"/>
<text text-anchor="middle" x="-202.238" y="517.174" font-family="Times,serif" font-size="14.00">Devise::SessionsController</text>
<polyline fill="none" stroke="black" points="-284.238,524.974 -120.238,524.974 "/>
<text text-anchor="start" x="-276.238" y="540.174" font-family="Times,serif" font-size="14.00">create</text>
<text text-anchor="start" x="-276.238" y="555.174" font-family="Times,serif" font-size="14.00">destroy</text>
<text text-anchor="start" x="-276.238" y="570.174" font-family="Times,serif" font-size="14.00">new</text>
<polyline fill="none" stroke="black" points="-284.238,577.974 -120.238,577.974 "/>
<text text-anchor="start" x="-276.238" y="593.174" font-family="Times,serif" font-size="14.00">auth_options</text>
<text text-anchor="start" x="-276.238" y="608.174" font-family="Times,serif" font-size="14.00">serialize_options</text>
<text text-anchor="start" x="-276.238" y="623.174" font-family="Times,serif" font-size="14.00">sign_in_params</text>
<text text-anchor="start" x="-276.238" y="638.174" font-family="Times,serif" font-size="14.00">translation_scope</text>
<polyline fill="none" stroke="black" points="-284.238,645.974 -120.238,645.974 "/>
<text text-anchor="start" x="-276.238" y="661.174" font-family="Times,serif" font-size="14.00">_layout</text>
<text text-anchor="start" x="-276.238" y="676.174" font-family="Times,serif" font-size="14.00">all_signed_out?</text>
<text text-anchor="start" x="-276.238" y="691.174" font-family="Times,serif" font-size="14.00">respond_to_on_destroy</text>
<text text-anchor="start" x="-276.238" y="706.174" font-family="Times,serif" font-size="14.00">verify_signed_out_user</text>
</g>
<!-- Devise::UnlocksController -->
<g id="node14" class="node"><title>Devise::UnlocksController</title>
<path fill="none" stroke="black" d="M-47.9303,643.634C-47.9303,643.634 184.07,643.634 184.07,643.634 190.07,643.634 196.07,637.634 196.07,631.634 196.07,631.634 196.07,503.634 196.07,503.634 196.07,497.634 190.07,491.634 184.07,491.634 184.07,491.634 -47.9303,491.634 -47.9303,491.634 -53.9303,491.634 -59.9303,497.634 -59.9303,503.634 -59.9303,503.634 -59.9303,631.634 -59.9303,631.634 -59.9303,637.634 -53.9303,643.634 -47.9303,643.634"/>
<text text-anchor="middle" x="68.0697" y="506.834" font-family="Times,serif" font-size="14.00">Devise::UnlocksController</text>
<polyline fill="none" stroke="black" points="-59.9303,514.634 196.07,514.634 "/>
<text text-anchor="start" x="-51.9303" y="529.834" font-family="Times,serif" font-size="14.00">create</text>
<text text-anchor="start" x="-51.9303" y="544.834" font-family="Times,serif" font-size="14.00">new</text>
<text text-anchor="start" x="-51.9303" y="559.834" font-family="Times,serif" font-size="14.00">show</text>
<polyline fill="none" stroke="black" points="-59.9303,567.634 196.07,567.634 "/>
<text text-anchor="start" x="-51.9303" y="582.834" font-family="Times,serif" font-size="14.00">after_sending_unlock_instructions_path_for</text>
<text text-anchor="start" x="-51.9303" y="597.834" font-family="Times,serif" font-size="14.00">after_unlock_path_for</text>
<text text-anchor="start" x="-51.9303" y="612.834" font-family="Times,serif" font-size="14.00">translation_scope</text>
<polyline fill="none" stroke="black" points="-59.9303,620.634 196.07,620.634 "/>
<text text-anchor="start" x="-51.9303" y="635.834" font-family="Times,serif" font-size="14.00">_layout</text>
</g>
<!-- DeviseController&#45;&gt;Devise::PasswordsController -->
<g id="edge4" class="edge"><title>DeviseController&#45;&gt;Devise::PasswordsController</title>
<path fill="none" stroke="black" d="M27.3318,138.361C70.9141,120.576 123.572,99.0873 172.32,79.1941"/>
</g>
<!-- DeviseController&#45;&gt;Devise::ConfirmationsController -->
<g id="edge5" class="edge"><title>DeviseController&#45;&gt;Devise::ConfirmationsController</title>
<path fill="none" stroke="black" d="M27.5153,34.2392C55.9436,-8.26178 85.9786,-53.165 110.384,-89.6514"/>
</g>
<!-- DeviseController&#45;&gt;Devise::RegistrationsController -->
<g id="edge6" class="edge"><title>DeviseController&#45;&gt;Devise::RegistrationsController</title>
<path fill="none" stroke="black" d="M-163.946,252.871C-206.182,286.188 -255.734,325.277 -298.067,358.671"/>
</g>
<!-- DeviseController&#45;&gt;Devise::OmniauthCallbacksController -->
<g id="edge7" class="edge"><title>DeviseController&#45;&gt;Devise::OmniauthCallbacksController</title>
<path fill="none" stroke="black" d="M27.4873,217.103C91.2017,243.572 175.184,278.459 242.11,306.262"/>
</g>
<!-- DeviseController&#45;&gt;Devise::SessionsController -->
<g id="edge8" class="edge"><title>DeviseController&#45;&gt;Devise::SessionsController</title>
<path fill="none" stroke="black" d="M-129.242,373.445C-142.992,417.623 -157.081,462.889 -169.168,501.723"/>
</g>
<!-- DeviseController&#45;&gt;Devise::UnlocksController -->
<g id="edge9" class="edge"><title>DeviseController&#45;&gt;Devise::UnlocksController</title>
<path fill="none" stroke="black" d="M0.229973,373.349C14.8926,415.341 29.5367,457.28 41.4464,491.388"/>
</g>
<!-- Faalis::APIController -->
<g id="node16" class="node"><title>Faalis::APIController</title>
<path fill="none" stroke="black" d="M573,305.5C573,305.5 699,305.5 699,305.5 705,305.5 711,299.5 711,293.5 711,293.5 711,150.5 711,150.5 711,144.5 705,138.5 699,138.5 699,138.5 573,138.5 573,138.5 567,138.5 561,144.5 561,150.5 561,150.5 561,293.5 561,293.5 561,299.5 567,305.5 573,305.5"/>
<text text-anchor="middle" x="636" y="153.7" font-family="Times,serif" font-size="14.00">Faalis::APIController</text>
<polyline fill="none" stroke="black" points="561,161.5 711,161.5 "/>
<text text-anchor="start" x="569" y="176.7" font-family="Times,serif" font-size="14.00">allowed_fields</text>
<text text-anchor="start" x="569" y="191.7" font-family="Times,serif" font-size="14.00">authenticate_filter</text>
<text text-anchor="start" x="569" y="206.7" font-family="Times,serif" font-size="14.00">load_resource_by_query</text>
<text text-anchor="start" x="569" y="221.7" font-family="Times,serif" font-size="14.00">set_csrf_cookie_for_ng</text>
<polyline fill="none" stroke="black" points="561,229.5 711,229.5 "/>
<text text-anchor="start" x="569" y="244.7" font-family="Times,serif" font-size="14.00">api_request?</text>
<text text-anchor="start" x="569" y="259.7" font-family="Times,serif" font-size="14.00">model_class</text>
<text text-anchor="start" x="569" y="274.7" font-family="Times,serif" font-size="14.00">verified_request?</text>
<polyline fill="none" stroke="black" points="561,282.5 711,282.5 "/>
<text text-anchor="start" x="569" y="297.7" font-family="Times,serif" font-size="14.00">_layout</text>
</g>
<!-- Faalis::ApplicationController -->
<g id="node19" class="node"><title>Faalis::ApplicationController</title>
<path fill="none" stroke="black" d="M318,560.5C318,560.5 470,560.5 470,560.5 476,560.5 482,554.5 482,548.5 482,548.5 482,479.5 482,479.5 482,473.5 476,467.5 470,467.5 470,467.5 318,467.5 318,467.5 312,467.5 306,473.5 306,479.5 306,479.5 306,548.5 306,548.5 306,554.5 312,560.5 318,560.5"/>
<text text-anchor="middle" x="394" y="482.7" font-family="Times,serif" font-size="14.00">Faalis::ApplicationController</text>
<polyline fill="none" stroke="black" points="306,490.5 482,490.5 "/>
<text text-anchor="start" x="314" y="505.7" font-family="Times,serif" font-size="14.00">set_locale</text>
<polyline fill="none" stroke="black" points="306,513.5 482,513.5 "/>
<polyline fill="none" stroke="black" points="306,537.5 482,537.5 "/>
<text text-anchor="start" x="314" y="552.7" font-family="Times,serif" font-size="14.00">_layout</text>
</g>
<!-- Faalis::Dashboard::UserMessagesController -->
<g id="node20" class="node"><title>Faalis::Dashboard::UserMessagesController</title>
<path fill="none" stroke="black" d="M-38.5,-307C-38.5,-307 194.5,-307 194.5,-307 200.5,-307 206.5,-313 206.5,-319 206.5,-319 206.5,-433 206.5,-433 206.5,-439 200.5,-445 194.5,-445 194.5,-445 -38.5,-445 -38.5,-445 -44.5,-445 -50.5,-439 -50.5,-433 -50.5,-433 -50.5,-319 -50.5,-319 -50.5,-313 -44.5,-307 -38.5,-307"/>
<text text-anchor="middle" x="78" y="-429.8" font-family="Times,serif" font-size="14.00">Faalis::Dashboard::UserMessagesController</text>
<polyline fill="none" stroke="black" points="-50.5,-422 206.5,-422 "/>
<text text-anchor="start" x="-42.5" y="-406.8" font-family="Times,serif" font-size="14.00">_engine</text>
<text text-anchor="start" x="-42.5" y="-391.8" font-family="Times,serif" font-size="14.00">_override_views</text>
<text text-anchor="start" x="-42.5" y="-376.8" font-family="Times,serif" font-size="14.00">sent</text>
<polyline fill="none" stroke="black" points="-50.5,-369 206.5,-369 "/>
<polyline fill="none" stroke="black" points="-50.5,-345 206.5,-345 "/>
<text text-anchor="start" x="-42.5" y="-329.8" font-family="Times,serif" font-size="14.00">_layout</text>
<text text-anchor="start" x="-42.5" y="-314.8" font-family="Times,serif" font-size="14.00">index_hook</text>
</g>
<!-- Faalis::Dashboard::ApplicationController -->
<g id="node21" class="node"><title>Faalis::Dashboard::ApplicationController</title>
<path fill="none" stroke="black" d="M-447,152.5C-447,152.5 -229,152.5 -229,152.5 -223,152.5 -217,146.5 -217,140.5 -217,140.5 -217,41.5 -217,41.5 -217,35.5 -223,29.5 -229,29.5 -229,29.5 -447,29.5 -447,29.5 -453,29.5 -459,35.5 -459,41.5 -459,41.5 -459,140.5 -459,140.5 -459,146.5 -453,152.5 -447,152.5"/>
<text text-anchor="middle" x="-338" y="44.7" font-family="Times,serif" font-size="14.00">Faalis::Dashboard::ApplicationController</text>
<polyline fill="none" stroke="black" points="-459,52.5 -217,52.5 "/>
<polyline fill="none" stroke="black" points="-459,76.5 -217,76.5 "/>
<text text-anchor="start" x="-451" y="91.7" font-family="Times,serif" font-size="14.00">setup_header</text>
<polyline fill="none" stroke="black" points="-459,99.5 -217,99.5 "/>
<text text-anchor="start" x="-451" y="114.7" font-family="Times,serif" font-size="14.00">_layout</text>
<text text-anchor="start" x="-451" y="129.7" font-family="Times,serif" font-size="14.00">redirect_to_404</text>
<text text-anchor="start" x="-451" y="144.7" font-family="Times,serif" font-size="14.00">user_not_authorized</text>
</g>
<!-- Faalis::Dashboard::UsersController -->
<g id="node22" class="node"><title>Faalis::Dashboard::UsersController</title>
<path fill="none" stroke="black" d="M318.5,-306.5C318.5,-306.5 503.5,-306.5 503.5,-306.5 509.5,-306.5 515.5,-312.5 515.5,-318.5 515.5,-318.5 515.5,-537.5 515.5,-537.5 515.5,-543.5 509.5,-549.5 503.5,-549.5 503.5,-549.5 318.5,-549.5 318.5,-549.5 312.5,-549.5 306.5,-543.5 306.5,-537.5 306.5,-537.5 306.5,-318.5 306.5,-318.5 306.5,-312.5 312.5,-306.5 318.5,-306.5"/>
<text text-anchor="middle" x="411" y="-534.3" font-family="Times,serif" font-size="14.00">Faalis::Dashboard::UsersController</text>
<polyline fill="none" stroke="black" points="306.5,-526.5 515.5,-526.5 "/>
<text text-anchor="start" x="314.5" y="-511.3" font-family="Times,serif" font-size="14.00">create</text>
<text text-anchor="start" x="314.5" y="-496.3" font-family="Times,serif" font-size="14.00">destroy</text>
<text text-anchor="start" x="314.5" y="-481.3" font-family="Times,serif" font-size="14.00">edit</text>
<text text-anchor="start" x="314.5" y="-466.3" font-family="Times,serif" font-size="14.00">edit_password</text>
<text text-anchor="start" x="314.5" y="-451.3" font-family="Times,serif" font-size="14.00">index</text>
<text text-anchor="start" x="314.5" y="-436.3" font-family="Times,serif" font-size="14.00">new</text>
<text text-anchor="start" x="314.5" y="-421.3" font-family="Times,serif" font-size="14.00">show</text>
<text text-anchor="start" x="314.5" y="-406.3" font-family="Times,serif" font-size="14.00">update</text>
<text text-anchor="start" x="314.5" y="-391.3" font-family="Times,serif" font-size="14.00">update_password</text>
<polyline fill="none" stroke="black" points="306.5,-383.5 515.5,-383.5 "/>
<polyline fill="none" stroke="black" points="306.5,-359.5 515.5,-359.5 "/>
<text text-anchor="start" x="314.5" y="-344.3" font-family="Times,serif" font-size="14.00">_layout</text>
<text text-anchor="start" x="314.5" y="-329.3" font-family="Times,serif" font-size="14.00">password_params</text>
<text text-anchor="start" x="314.5" y="-314.3" font-family="Times,serif" font-size="14.00">user_params</text>
</g>
<!-- Faalis::Dashboard::GroupsController -->
<g id="node23" class="node"><title>Faalis::Dashboard::GroupsController</title>
<path fill="none" stroke="black" d="M12,-511C12,-511 206,-511 206,-511 212,-511 218,-517 218,-523 218,-523 218,-697 218,-697 218,-703 212,-709 206,-709 206,-709 12,-709 12,-709 6,-709 0,-703 0,-697 0,-697 0,-523 0,-523 0,-517 6,-511 12,-511"/>
<text text-anchor="middle" x="109" y="-693.8" font-family="Times,serif" font-size="14.00">Faalis::Dashboard::GroupsController</text>
<polyline fill="none" stroke="black" points="0,-686 218,-686 "/>
<text text-anchor="start" x="8" y="-670.8" font-family="Times,serif" font-size="14.00">create</text>
<text text-anchor="start" x="8" y="-655.8" font-family="Times,serif" font-size="14.00">edit</text>
<text text-anchor="start" x="8" y="-640.8" font-family="Times,serif" font-size="14.00">index</text>
<text text-anchor="start" x="8" y="-625.8" font-family="Times,serif" font-size="14.00">new</text>
<text text-anchor="start" x="8" y="-610.8" font-family="Times,serif" font-size="14.00">update</text>
<polyline fill="none" stroke="black" points="0,-603 218,-603 "/>
<polyline fill="none" stroke="black" points="0,-579 218,-579 "/>
<text text-anchor="start" x="8" y="-563.8" font-family="Times,serif" font-size="14.00">_layout</text>
<text text-anchor="start" x="8" y="-548.8" font-family="Times,serif" font-size="14.00">get_all_permissions</text>
<text text-anchor="start" x="8" y="-533.8" font-family="Times,serif" font-size="14.00">group_params</text>
<text text-anchor="start" x="8" y="-518.8" font-family="Times,serif" font-size="14.00">populate_permissions</text>
</g>
<!-- Faalis::DashboardController -->
<g id="node25" class="node"><title>Faalis::DashboardController</title>
<path fill="none" stroke="black" d="M624,-307C624,-307 770,-307 770,-307 776,-307 782,-313 782,-319 782,-319 782,-403 782,-403 782,-409 776,-415 770,-415 770,-415 624,-415 624,-415 618,-415 612,-409 612,-403 612,-403 612,-319 612,-319 612,-313 618,-307 624,-307"/>
<text text-anchor="middle" x="697" y="-399.8" font-family="Times,serif" font-size="14.00">Faalis::DashboardController</text>
<polyline fill="none" stroke="black" points="612,-392 782,-392 "/>
<text text-anchor="start" x="620" y="-376.8" font-family="Times,serif" font-size="14.00">index</text>
<text text-anchor="start" x="620" y="-361.8" font-family="Times,serif" font-size="14.00">not_found</text>
<polyline fill="none" stroke="black" points="612,-354 782,-354 "/>
<polyline fill="none" stroke="black" points="612,-330 782,-330 "/>
<text text-anchor="start" x="620" y="-314.8" font-family="Times,serif" font-size="14.00">_layout</text>
</g>
</g>
</svg>
