<?xml version="1.0" encoding="UTF-8" standalone="no"?>
<!-- Generated by graphviz version 2.38.0 (20140413.2041)
 -->

<!-- Title: models_diagram Pages: 1 -->

<svg
   xmlns:dc="http://purl.org/dc/elements/1.1/"
   xmlns:cc="http://creativecommons.org/ns#"
   xmlns:rdf="http://www.w3.org/1999/02/22-rdf-syntax-ns#"
   xmlns:svg="http://www.w3.org/2000/svg"
   xmlns="http://www.w3.org/2000/svg"
   xmlns:sodipodi="http://sodipodi.sourceforge.net/DTD/sodipodi-0.dtd"
   xmlns:inkscape="http://www.inkscape.org/namespaces/inkscape"
   width="2538pt"
   height="260pt"
   viewBox="0.00 0.00 2538.34 260.00"
   id="svg2"
   version="1.1"
   inkscape:version="0.91 r13725"
   sodipodi:docname="models_brief.svg">
  <metadata
     id="metadata168">
    <rdf:RDF>
      <cc:Work
         rdf:about="">
        <dc:format>image/svg+xml</dc:format>
        <dc:type
           rdf:resource="http://purl.org/dc/dcmitype/StillImage" />
      </cc:Work>
    </rdf:RDF>
  </metadata>
  <defs
     id="defs166" />
  <sodipodi:namedview
     pagecolor="#ffffff"
     bordercolor="#666666"
     borderopacity="1"
     objecttolerance="10"
     gridtolerance="10"
     guidetolerance="10"
     inkscape:pageopacity="0"
     inkscape:pageshadow="2"
     inkscape:window-width="1600"
     inkscape:window-height="864"
     id="namedview164"
     showgrid="false"
     inkscape:zoom="0.27548746"
     inkscape:cx="1712.9713"
     inkscape:cy="166.64532"
     inkscape:window-x="0"
     inkscape:window-y="36"
     inkscape:window-maximized="0"
     inkscape:current-layer="graph0" />
  <g
     id="graph0"
     class="graph"
     transform="scale(1 1) rotate(0) translate(4 256)">
    <title
       id="title5">models_diagram</title>
    <polygon
       fill="none"
       stroke="none"
       points="-4,4 -4,-256 2534.34,-256 2534.34,4 -4,4"
       id="polygon7" />
    <!-- _diagram_info -->
    <!-- Post -->
    <g
       id="node2"
       class="node">
      <title
         id="title23">Post</title>
      <ellipse
         fill="none"
         stroke="black"
         cx="259"
         cy="-213"
         rx="27"
         ry="18"
         id="ellipse25" />
      <text
         text-anchor="middle"
         x="259"
         y="-209.3"
         font-family="Times,serif"
         font-size="14.00"
         id="text27">Post</text>
    </g>
    <!-- ApplicationModels -->
    <g
       id="node3"
       class="node">
      <title
         id="title30">ApplicationModels</title>
      <ellipse
         fill="none"
         stroke="black"
         cx="383"
         cy="-213"
         rx="79.0865"
         ry="18"
         id="ellipse32" />
      <text
         text-anchor="middle"
         x="383"
         y="-209.3"
         font-family="Times,serif"
         font-size="14.00"
         id="text34">ApplicationModels</text>
    </g>
    <!-- Amd::ApplicationRecord -->
    <g
       id="node4"
       class="node">
      <title
         id="title37">Amd::ApplicationRecord</title>
      <ellipse
         fill="none"
         stroke="black"
         cx="581"
         cy="-213"
         rx="100.983"
         ry="18"
         id="ellipse39" />
      <text
         text-anchor="middle"
         x="581"
         y="-209.3"
         font-family="Times,serif"
         font-size="14.00"
         id="text41">Amd::ApplicationRecord</text>
    </g>
    <!-- Faalis::User -->
    <g
       id="node5"
       class="node">
      <title
         id="title44">Faalis::User</title>
      <ellipse
         fill="none"
         stroke="black"
         cx="753"
         cy="-213"
         rx="53.0913"
         ry="18"
         id="ellipse46" />
      <text
         text-anchor="middle"
         x="753"
         y="-209.3"
         font-family="Times,serif"
         font-size="14.00"
         id="text48">Faalis::User</text>
    </g>
    <!-- Faalis::Group -->
    <g
       id="node12"
       class="node">
      <title
         id="title51">Faalis::Group</title>
      <ellipse
         fill="none"
         stroke="black"
         cx="753"
         cy="-105"
         rx="59.2899"
         ry="18"
         id="ellipse53" />
      <text
         text-anchor="middle"
         x="753"
         y="-101.3"
         font-family="Times,serif"
         font-size="14.00"
         id="text55">Faalis::Group</text>
    </g>
    <!-- Faalis::User&#45;&gt;Faalis::Group -->
    <g
       id="edge1"
       class="edge">
      <title
         id="title58">Faalis::User-&gt;Faalis::Group</title>
      <path
         fill="none"
         stroke="#5e1b1c"
         d="M733.328,-187.182C725.016,-173.639 718.407,-156.516 724,-141 725.308,-137.372 727.173,-133.853 729.336,-130.534"
         id="path60" />
      <polygon
         fill="#5e1b1c"
         stroke="#5e1b1c"
         points="733.348,-187.211 735.19,-198.021 736.137,-191.361 738.925,-195.511 738.925,-195.511 738.925,-195.511 736.137,-191.361 742.66,-193.001 733.348,-187.211 733.348,-187.211"
         id="polygon62" />
      <polygon
         fill="#5e1b1c"
         stroke="#5e1b1c"
         points="729.546,-130.257 739.165,-124.993 732.56,-126.268 735.575,-122.279 735.575,-122.279 735.575,-122.279 732.56,-126.268 731.985,-119.566 729.546,-130.257 729.546,-130.257"
         id="polygon64" />
      <text
         text-anchor="middle"
         x="742.5"
         y="-144.8"
         font-family="Times,serif"
         font-size="14.00"
         id="text66">groups</text>
    </g>
    <!-- Faalis::Concerns::Assignment -->
    <g
       id="node6"
       class="node">
      <title
         id="title69">Faalis::Concerns::Assignment</title>
      <polygon
         fill="none"
         stroke="black"
         stroke-dasharray="1,5"
         points="1004,-231 824,-231 824,-195 1004,-195 1004,-231"
         id="polygon71" />
      <text
         text-anchor="middle"
         x="914"
         y="-209.3"
         font-family="Times,serif"
         font-size="14.00"
         id="text73">Faalis::Concerns::Assignment</text>
    </g>
    <!-- Faalis::Concerns::User::Gravatar -->
    <g
       id="node7"
       class="node">
      <title
         id="title76">Faalis::Concerns::User::Gravatar</title>
      <polygon
         fill="none"
         stroke="black"
         stroke-dasharray="1,5"
         points="1217.5,-231 1022.5,-231 1022.5,-195 1217.5,-195 1217.5,-231"
         id="polygon78" />
      <text
         text-anchor="middle"
         x="1120"
         y="-209.3"
         font-family="Times,serif"
         font-size="14.00"
         id="text80">Faalis::Concerns::User::Gravatar</text>
    </g>
    <!-- Faalis::Concerns::User::AuthDefinitions -->
    <g
       id="node8"
       class="node">
      <title
         id="title83">Faalis::Concerns::User::AuthDefinitions</title>
      <polygon
         fill="none"
         stroke="black"
         stroke-dasharray="1,5"
         points="1472,-231 1236,-231 1236,-195 1472,-195 1472,-231"
         id="polygon85" />
      <text
         text-anchor="middle"
         x="1354"
         y="-209.3"
         font-family="Times,serif"
         font-size="14.00"
         id="text87">Faalis::Concerns::User::AuthDefinitions</text>
    </g>
    <!-- Faalis::Concerns::User::Permission -->
    <g
       id="node9"
       class="node">
      <title
         id="title90">Faalis::Concerns::User::Permission</title>
      <polygon
         fill="none"
         stroke="black"
         stroke-dasharray="1,5"
         points="1699.5,-231 1490.5,-231 1490.5,-195 1699.5,-195 1699.5,-231"
         id="polygon92" />
      <text
         text-anchor="middle"
         x="1595"
         y="-209.3"
         font-family="Times,serif"
         font-size="14.00"
         id="text94">Faalis::Concerns::User::Permission</text>
    </g>
    <!-- Faalis::Concerns::User::MongoidFields -->
    <g
       id="node10"
       class="node">
      <title
         id="title97">Faalis::Concerns::User::MongoidFields</title>
      <polygon
         fill="none"
         stroke="black"
         stroke-dasharray="1,5"
         points="1948.5,-231 1717.5,-231 1717.5,-195 1948.5,-195 1948.5,-231"
         id="polygon99" />
      <text
         text-anchor="middle"
         x="1833"
         y="-209.3"
         font-family="Times,serif"
         font-size="14.00"
         id="text101">Faalis::Concerns::User::MongoidFields</text>
    </g>
    <!-- Faalis::Concerns::User::UserRoles -->
    <g
       id="node11"
       class="node">
      <title
         id="title104">Faalis::Concerns::User::UserRoles</title>
      <polygon
         fill="none"
         stroke="black"
         stroke-dasharray="1,5"
         points="2171,-231 1967,-231 1967,-195 2171,-195 2171,-231"
         id="polygon106" />
      <text
         text-anchor="middle"
         x="2069"
         y="-209.3"
         font-family="Times,serif"
         font-size="14.00"
         id="text108">Faalis::Concerns::User::UserRoles</text>
    </g>
    <!-- Faalis::Group&#45;&gt;Faalis::User -->
    <g
       id="edge2"
       class="edge">
      <title
         id="title111">Faalis::Group-&gt;Faalis::User</title>
      <path
         fill="none"
         stroke="#7d1c16"
         d="M759.757,-132.742C760.264,-135.516 760.696,-138.306 761,-141 762.635,-155.492 761.081,-171.648 758.922,-184.883"
         id="path113" />
      <polygon
         fill="#7d1c16"
         stroke="#7d1c16"
         points="759.757,-132.74 762.085,-122.024 758.72,-127.849 757.683,-122.958 757.683,-122.958 757.683,-122.958 758.72,-127.849 753.28,-123.891 759.757,-132.74 759.757,-132.74"
         id="polygon115" />
      <polygon
         fill="#7d1c16"
         stroke="#7d1c16"
         points="758.911,-184.947 752.684,-193.973 758.011,-189.865 757.111,-194.783 757.111,-194.783 757.111,-194.783 758.011,-189.865 761.537,-195.593 758.911,-184.947 758.911,-184.947"
         id="polygon117" />
      <text
         text-anchor="middle"
         x="775"
         y="-144.8"
         font-family="Times,serif"
         font-size="14.00"
         id="text119">users</text>
    </g>
    <!-- Faalis::Permission -->
    <g
       id="node14"
       class="node">
      <title
         id="title122">Faalis::Permission</title>
      <ellipse
         fill="none"
         stroke="black"
         cx="753"
         cy="-18"
         rx="76.0865"
         ry="18"
         id="ellipse124" />
      <text
         text-anchor="middle"
         x="753"
         y="-14.3"
         font-family="Times,serif"
         font-size="14.00"
         id="text126">Faalis::Permission</text>
    </g>
    <!-- Faalis::Group&#45;&gt;Faalis::Permission -->
    <g
       id="edge3"
       class="edge">
      <title
         id="title129">Faalis::Group-&gt;Faalis::Permission</title>
      <path
         fill="none"
         stroke="#0506b2"
         d="M719.274,-81.9619C715.536,-78.0989 712.267,-73.7677 710,-69 705.333,-59.1835 710.041,-49.7714 717.813,-41.8138"
         id="path131" />
      <polygon
         fill="#0506b2"
         stroke="#0506b2"
         points="719.457,-82.1261 723.894,-92.1542 723.178,-85.4656 726.899,-88.8051 726.899,-88.8051 726.899,-88.8051 723.178,-85.4656 729.905,-85.4559 719.457,-82.1261 719.457,-82.1261"
         id="polygon133" />
      <polygon
         fill="#0506b2"
         stroke="#0506b2"
         points="718.118,-41.5455 728.601,-38.3254 721.874,-38.2452 725.63,-34.9449 725.63,-34.9449 725.63,-34.9449 721.874,-38.2452 722.66,-31.5644 718.118,-41.5455 718.118,-41.5455"
         id="polygon135" />
      <text
         text-anchor="middle"
         x="743"
         y="-57.8"
         font-family="Times,serif"
         font-size="14.00"
         id="text137">permissions</text>
    </g>
    <!-- Faalis::UserMessage -->
    <g
       id="node13"
       class="node">
      <title
         id="title140">Faalis::UserMessage</title>
      <ellipse
         fill="none"
         stroke="black"
         cx="2273"
         cy="-213"
         rx="84.485"
         ry="18"
         id="ellipse142" />
      <text
         text-anchor="middle"
         x="2273"
         y="-209.3"
         font-family="Times,serif"
         font-size="14.00"
         id="text144">Faalis::UserMessage</text>
    </g>
    <!-- Faalis::Permission&#45;&gt;Faalis::Group -->
    <g
       id="edge4"
       class="edge">
      <title
         id="title147">Faalis::Permission-&gt;Faalis::Group</title>
      <path
         fill="none"
         stroke="#7fc583"
         d="M772.809,-44.8891C776.438,-52.4889 778.414,-60.9301 776,-69 775.041,-72.2043 773.685,-75.3872 772.104,-78.4528"
         id="path149" />
      <polygon
         fill="#7fc583"
         stroke="#7fc583"
         points="772.746,-44.779 771.645,-33.8685 770.247,-40.4484 767.747,-36.1178 767.747,-36.1178 767.747,-36.1178 770.247,-40.4484 763.85,-38.3672 772.746,-44.779 772.746,-44.779"
         id="polygon151" />
      <polygon
         fill="#7fc583"
         stroke="#7fc583"
         points="772.002,-78.6234 763.003,-84.8898 769.432,-82.9128 766.863,-87.2022 766.863,-87.2022 766.863,-87.2022 769.432,-82.9128 770.724,-89.5145 772.002,-78.6234 772.002,-78.6234"
         id="polygon153" />
      <text
         text-anchor="middle"
         x="795.5"
         y="-57.8"
         font-family="Times,serif"
         font-size="14.00"
         id="text155">groups</text>
    </g>
    <!-- ApplicationRecord -->
    <g
       id="node15"
       class="node">
      <title
         id="title158">ApplicationRecord</title>
      <ellipse
         fill="none"
         stroke="black"
         cx="2453"
         cy="-213"
         rx="77.1866"
         ry="18"
         id="ellipse160" />
      <text
         text-anchor="middle"
         x="2453"
         y="-209.3"
         font-family="Times,serif"
         font-size="14.00"
         id="text162">ApplicationRecord</text>
    </g>
  </g>
</svg>
