<?xml version="1.0" encoding="UTF-8" standalone="no"?>
<!-- Generated by graphviz version 2.38.0 (20140413.2041)
 -->

<!-- Title: models_diagram Pages: 1 -->

<svg
   xmlns:dc="http://purl.org/dc/elements/1.1/"
   xmlns:cc="http://creativecommons.org/ns#"
   xmlns:rdf="http://www.w3.org/1999/02/22-rdf-syntax-ns#"
   xmlns:svg="http://www.w3.org/2000/svg"
   xmlns="http://www.w3.org/2000/svg"
   xmlns:sodipodi="http://sodipodi.sourceforge.net/DTD/sodipodi-0.dtd"
   xmlns:inkscape="http://www.inkscape.org/namespaces/inkscape"
   width="2645pt"
   height="626pt"
   viewBox="0.00 0.00 2645.34 626.00"
   id="svg2"
   version="1.1"
   inkscape:version="0.91 r13725"
   sodipodi:docname="models_complete.svg">
  <metadata
     id="metadata270">
    <rdf:RDF>
      <cc:Work
         rdf:about="">
        <dc:format>image/svg+xml</dc:format>
        <dc:type
           rdf:resource="http://purl.org/dc/dcmitype/StillImage" />
      </cc:Work>
    </rdf:RDF>
  </metadata>
  <defs
     id="defs268" />
  <sodipodi:namedview
     pagecolor="#ffffff"
     bordercolor="#666666"
     borderopacity="1"
     objecttolerance="10"
     gridtolerance="10"
     guidetolerance="10"
     inkscape:pageopacity="0"
     inkscape:pageshadow="2"
     inkscape:window-width="1600"
     inkscape:window-height="864"
     id="namedview266"
     showgrid="false"
     inkscape:zoom="0.52868596"
     inkscape:cx="-111.71604"
     inkscape:cy="411.98176"
     inkscape:window-x="0"
     inkscape:window-y="36"
     inkscape:window-maximized="0"
     inkscape:current-layer="graph0" />
  <g
     id="graph0"
     class="graph"
     transform="scale(1 1) rotate(0) translate(4 622)">
    <title
       id="title5">models_diagram</title>
    <polygon
       fill="none"
       stroke="none"
       points="-4,4 -4,-622 2641.34,-622 2641.34,4 -4,4"
       id="polygon7" />
    <!-- _diagram_info -->
    <!-- Post -->
    <g
       id="node2"
       class="node">
      <title
         id="title23">Post</title>
      <path
         fill="none"
         stroke="black"
         d="M244.5,-414C244.5,-414 351.5,-414 351.5,-414 357.5,-414 363.5,-420 363.5,-426 363.5,-426 363.5,-508 363.5,-508 363.5,-514 357.5,-520 351.5,-520 351.5,-520 244.5,-520 244.5,-520 238.5,-520 232.5,-514 232.5,-508 232.5,-508 232.5,-426 232.5,-426 232.5,-420 238.5,-414 244.5,-414"
         id="path25" />
      <text
         text-anchor="middle"
         x="298"
         y="-504.8"
         font-family="Times,serif"
         font-size="14.00"
         id="text27">Post</text>
      <polyline
         fill="none"
         stroke="black"
         points="232.5,-497 363.5,-497 "
         id="polyline29" />
      <text
         text-anchor="start"
         x="240.5"
         y="-481.8"
         font-family="Times,serif"
         font-size="14.00"
         id="text31">id :INTEGER</text>
      <text
         text-anchor="start"
         x="240.5"
         y="-466.8"
         font-family="Times,serif"
         font-size="14.00"
         id="text33">title :varchar</text>
      <text
         text-anchor="start"
         x="240.5"
         y="-451.8"
         font-family="Times,serif"
         font-size="14.00"
         id="text35">text :text</text>
      <text
         text-anchor="start"
         x="240.5"
         y="-436.8"
         font-family="Times,serif"
         font-size="14.00"
         id="text37">created_at :datetime</text>
      <text
         text-anchor="start"
         x="240.5"
         y="-421.8"
         font-family="Times,serif"
         font-size="14.00"
         id="text39">updated_at :datetime</text>
    </g>
    <!-- ApplicationModels -->
    <g
       id="node3"
       class="node">
      <title
         id="title42">ApplicationModels</title>
      <path
         fill="none"
         stroke="black"
         d="M393.5,-421.5C393.5,-421.5 500.5,-421.5 500.5,-421.5 506.5,-421.5 512.5,-427.5 512.5,-433.5 512.5,-433.5 512.5,-500.5 512.5,-500.5 512.5,-506.5 506.5,-512.5 500.5,-512.5 500.5,-512.5 393.5,-512.5 393.5,-512.5 387.5,-512.5 381.5,-506.5 381.5,-500.5 381.5,-500.5 381.5,-433.5 381.5,-433.5 381.5,-427.5 387.5,-421.5 393.5,-421.5"
         id="path44" />
      <text
         text-anchor="middle"
         x="447"
         y="-497.3"
         font-family="Times,serif"
         font-size="14.00"
         id="text46">ApplicationModels</text>
      <polyline
         fill="none"
         stroke="black"
         points="381.5,-489.5 512.5,-489.5 "
         id="polyline48" />
      <text
         text-anchor="start"
         x="389.5"
         y="-474.3"
         font-family="Times,serif"
         font-size="14.00"
         id="text50">id :INTEGER</text>
      <text
         text-anchor="start"
         x="389.5"
         y="-459.3"
         font-family="Times,serif"
         font-size="14.00"
         id="text52">model :varchar</text>
      <text
         text-anchor="start"
         x="389.5"
         y="-444.3"
         font-family="Times,serif"
         font-size="14.00"
         id="text54">created_at :datetime</text>
      <text
         text-anchor="start"
         x="389.5"
         y="-429.3"
         font-family="Times,serif"
         font-size="14.00"
         id="text56">updated_at :datetime</text>
    </g>
    <!-- Amd::ApplicationRecord -->
    <g
       id="node4"
       class="node">
      <title
         id="title59">Amd::ApplicationRecord</title>
      <ellipse
         fill="none"
         stroke="black"
         cx="631"
         cy="-467"
         rx="100.983"
         ry="18"
         id="ellipse61" />
      <text
         text-anchor="middle"
         x="631"
         y="-463.3"
         font-family="Times,serif"
         font-size="14.00"
         id="text63">Amd::ApplicationRecord</text>
    </g>
    <!-- Faalis::User -->
    <g
       id="node5"
       class="node">
      <title
         id="title66">Faalis::User</title>
      <path
         fill="none"
         stroke="black"
         d="M762,-316.5C762,-316.5 938,-316.5 938,-316.5 944,-316.5 950,-322.5 950,-328.5 950,-328.5 950,-605.5 950,-605.5 950,-611.5 944,-617.5 938,-617.5 938,-617.5 762,-617.5 762,-617.5 756,-617.5 750,-611.5 750,-605.5 750,-605.5 750,-328.5 750,-328.5 750,-322.5 756,-316.5 762,-316.5"
         id="path68" />
      <text
         text-anchor="middle"
         x="850"
         y="-602.3"
         font-family="Times,serif"
         font-size="14.00"
         id="text70">Faalis::User</text>
      <polyline
         fill="none"
         stroke="black"
         points="750,-594.5 950,-594.5 "
         id="polyline72" />
      <text
         text-anchor="start"
         x="758"
         y="-579.3"
         font-family="Times,serif"
         font-size="14.00"
         id="text74">id :INTEGER</text>
      <text
         text-anchor="start"
         x="758"
         y="-564.3"
         font-family="Times,serif"
         font-size="14.00"
         id="text76">email :varchar</text>
      <text
         text-anchor="start"
         x="758"
         y="-549.3"
         font-family="Times,serif"
         font-size="14.00"
         id="text78">encrypted_password :varchar</text>
      <text
         text-anchor="start"
         x="758"
         y="-534.3"
         font-family="Times,serif"
         font-size="14.00"
         id="text80">reset_password_token :varchar</text>
      <text
         text-anchor="start"
         x="758"
         y="-519.3"
         font-family="Times,serif"
         font-size="14.00"
         id="text82">reset_password_sent_at :datetime</text>
      <text
         text-anchor="start"
         x="758"
         y="-504.3"
         font-family="Times,serif"
         font-size="14.00"
         id="text84">remember_created_at :datetime</text>
      <text
         text-anchor="start"
         x="758"
         y="-489.3"
         font-family="Times,serif"
         font-size="14.00"
         id="text86">sign_in_count :integer</text>
      <text
         text-anchor="start"
         x="758"
         y="-474.3"
         font-family="Times,serif"
         font-size="14.00"
         id="text88">current_sign_in_at :datetime</text>
      <text
         text-anchor="start"
         x="758"
         y="-459.3"
         font-family="Times,serif"
         font-size="14.00"
         id="text90">last_sign_in_at :datetime</text>
      <text
         text-anchor="start"
         x="758"
         y="-444.3"
         font-family="Times,serif"
         font-size="14.00"
         id="text92">current_sign_in_ip :varchar</text>
      <text
         text-anchor="start"
         x="758"
         y="-429.3"
         font-family="Times,serif"
         font-size="14.00"
         id="text94">last_sign_in_ip :varchar</text>
      <text
         text-anchor="start"
         x="758"
         y="-414.3"
         font-family="Times,serif"
         font-size="14.00"
         id="text96">first_name :varchar</text>
      <text
         text-anchor="start"
         x="758"
         y="-399.3"
         font-family="Times,serif"
         font-size="14.00"
         id="text98">last_name :varchar</text>
      <text
         text-anchor="start"
         x="758"
         y="-384.3"
         font-family="Times,serif"
         font-size="14.00"
         id="text100">failed_attempts :integer</text>
      <text
         text-anchor="start"
         x="758"
         y="-369.3"
         font-family="Times,serif"
         font-size="14.00"
         id="text102">unlock_token :varchar</text>
      <text
         text-anchor="start"
         x="758"
         y="-354.3"
         font-family="Times,serif"
         font-size="14.00"
         id="text104">locked_at :datetime</text>
      <text
         text-anchor="start"
         x="758"
         y="-339.3"
         font-family="Times,serif"
         font-size="14.00"
         id="text106">created_at :datetime</text>
      <text
         text-anchor="start"
         x="758"
         y="-324.3"
         font-family="Times,serif"
         font-size="14.00"
         id="text108">updated_at :datetime</text>
    </g>
    <!-- Faalis::Group -->
    <g
       id="node12"
       class="node">
      <title
         id="title111">Faalis::Group</title>
      <path
         fill="none"
         stroke="black"
         d="M796.5,-158.5C796.5,-158.5 903.5,-158.5 903.5,-158.5 909.5,-158.5 915.5,-164.5 915.5,-170.5 915.5,-170.5 915.5,-252.5 915.5,-252.5 915.5,-258.5 909.5,-264.5 903.5,-264.5 903.5,-264.5 796.5,-264.5 796.5,-264.5 790.5,-264.5 784.5,-258.5 784.5,-252.5 784.5,-252.5 784.5,-170.5 784.5,-170.5 784.5,-164.5 790.5,-158.5 796.5,-158.5"
         id="path113" />
      <text
         text-anchor="middle"
         x="850"
         y="-249.3"
         font-family="Times,serif"
         font-size="14.00"
         id="text115">Faalis::Group</text>
      <polyline
         fill="none"
         stroke="black"
         points="784.5,-241.5 915.5,-241.5 "
         id="polyline117" />
      <text
         text-anchor="start"
         x="792.5"
         y="-226.3"
         font-family="Times,serif"
         font-size="14.00"
         id="text119">id :INTEGER</text>
      <text
         text-anchor="start"
         x="792.5"
         y="-211.3"
         font-family="Times,serif"
         font-size="14.00"
         id="text121">name :varchar</text>
      <text
         text-anchor="start"
         x="792.5"
         y="-196.3"
         font-family="Times,serif"
         font-size="14.00"
         id="text123">role :varchar</text>
      <text
         text-anchor="start"
         x="792.5"
         y="-181.3"
         font-family="Times,serif"
         font-size="14.00"
         id="text125">created_at :datetime</text>
      <text
         text-anchor="start"
         x="792.5"
         y="-166.3"
         font-family="Times,serif"
         font-size="14.00"
         id="text127">updated_at :datetime</text>
    </g>
    <!-- Faalis::User&#45;&gt;Faalis::Group -->
    <g
       id="edge1"
       class="edge">
      <title
         id="title130">Faalis::User-&gt;Faalis::Group</title>
      <path
         fill="none"
         stroke="#49522a"
         d="M818.052,-305.832C818.571,-298.103 819.526,-290.46 821,-283 821.565,-280.14 822.248,-277.249 823.024,-274.356"
         id="path132" />
      <polygon
         fill="#49522a"
         stroke="#49522a"
         points="818.043,-306.041 813.119,-315.839 817.829,-311.037 817.615,-316.032 817.615,-316.032 817.615,-316.032 817.829,-311.037 822.111,-316.225 818.043,-306.041 818.043,-306.041"
         id="polygon134" />
      <polygon
         fill="#49522a"
         stroke="#49522a"
         points="823.096,-274.116 830.293,-265.842 824.541,-269.329 825.985,-264.542 825.985,-264.542 825.985,-264.542 824.541,-269.329 821.677,-263.242 823.096,-274.116 823.096,-274.116"
         id="polygon136" />
      <text
         text-anchor="middle"
         x="839.5"
         y="-286.8"
         font-family="Times,serif"
         font-size="14.00"
         id="text138">groups</text>
    </g>
    <!-- Faalis::Concerns::Assignment -->
    <g
       id="node6"
       class="node">
      <title
         id="title141">Faalis::Concerns::Assignment</title>
      <polygon
         fill="none"
         stroke="black"
         stroke-dasharray="1,5"
         points="1148,-485 968,-485 968,-449 1148,-449 1148,-485"
         id="polygon143" />
      <text
         text-anchor="middle"
         x="1058"
         y="-463.3"
         font-family="Times,serif"
         font-size="14.00"
         id="text145">Faalis::Concerns::Assignment</text>
    </g>
    <!-- Faalis::Concerns::User::Gravatar -->
    <g
       id="node7"
       class="node">
      <title
         id="title148">Faalis::Concerns::User::Gravatar</title>
      <polygon
         fill="none"
         stroke="black"
         stroke-dasharray="1,5"
         points="1361.5,-485 1166.5,-485 1166.5,-449 1361.5,-449 1361.5,-485"
         id="polygon150" />
      <text
         text-anchor="middle"
         x="1264"
         y="-463.3"
         font-family="Times,serif"
         font-size="14.00"
         id="text152">Faalis::Concerns::User::Gravatar</text>
    </g>
    <!-- Faalis::Concerns::User::AuthDefinitions -->
    <g
       id="node8"
       class="node">
      <title
         id="title155">Faalis::Concerns::User::AuthDefinitions</title>
      <polygon
         fill="none"
         stroke="black"
         stroke-dasharray="1,5"
         points="1616,-485 1380,-485 1380,-449 1616,-449 1616,-485"
         id="polygon157" />
      <text
         text-anchor="middle"
         x="1498"
         y="-463.3"
         font-family="Times,serif"
         font-size="14.00"
         id="text159">Faalis::Concerns::User::AuthDefinitions</text>
    </g>
    <!-- Faalis::Concerns::User::Permission -->
    <g
       id="node9"
       class="node">
      <title
         id="title162">Faalis::Concerns::User::Permission</title>
      <polygon
         fill="none"
         stroke="black"
         stroke-dasharray="1,5"
         points="1843.5,-485 1634.5,-485 1634.5,-449 1843.5,-449 1843.5,-485"
         id="polygon164" />
      <text
         text-anchor="middle"
         x="1739"
         y="-463.3"
         font-family="Times,serif"
         font-size="14.00"
         id="text166">Faalis::Concerns::User::Permission</text>
    </g>
    <!-- Faalis::Concerns::User::MongoidFields -->
    <g
       id="node10"
       class="node">
      <title
         id="title169">Faalis::Concerns::User::MongoidFields</title>
      <polygon
         fill="none"
         stroke="black"
         stroke-dasharray="1,5"
         points="2092.5,-485 1861.5,-485 1861.5,-449 2092.5,-449 2092.5,-485"
         id="polygon171" />
      <text
         text-anchor="middle"
         x="1977"
         y="-463.3"
         font-family="Times,serif"
         font-size="14.00"
         id="text173">Faalis::Concerns::User::MongoidFields</text>
    </g>
    <!-- Faalis::Concerns::User::UserRoles -->
    <g
       id="node11"
       class="node">
      <title
         id="title176">Faalis::Concerns::User::UserRoles</title>
      <polygon
         fill="none"
         stroke="black"
         stroke-dasharray="1,5"
         points="2315,-485 2111,-485 2111,-449 2315,-449 2315,-485"
         id="polygon178" />
      <text
         text-anchor="middle"
         x="2213"
         y="-463.3"
         font-family="Times,serif"
         font-size="14.00"
         id="text180">Faalis::Concerns::User::UserRoles</text>
    </g>
    <!-- Faalis::Group&#45;&gt;Faalis::User -->
    <g
       id="edge2"
       class="edge">
      <title
         id="title183">Faalis::Group-&gt;Faalis::User</title>
      <path
         fill="none"
         stroke="#bc53d4"
         d="M857.457,-274.841C857.665,-277.596 857.849,-280.325 858,-283 858.425,-290.506 858.702,-298.186 858.857,-305.945"
         id="path185" />
      <polygon
         fill="#bc53d4"
         stroke="#bc53d4"
         points="857.45,-274.766 861.084,-264.42 857.025,-269.785 856.601,-264.803 856.601,-264.803 856.601,-264.803 857.025,-269.785 852.117,-265.185 857.45,-274.766 857.45,-274.766"
         id="polygon187" />
      <polygon
         fill="#bc53d4"
         stroke="#bc53d4"
         points="858.86,-306.182 854.492,-316.24 858.926,-311.181 858.992,-316.181 858.992,-316.181 858.992,-316.181 858.926,-311.181 863.491,-316.122 858.86,-306.182 858.86,-306.182"
         id="polygon189" />
      <text
         text-anchor="middle"
         x="872"
         y="-286.8"
         font-family="Times,serif"
         font-size="14.00"
         id="text191">users</text>
    </g>
    <!-- Faalis::Permission -->
    <g
       id="node14"
       class="node">
      <title
         id="title194">Faalis::Permission</title>
      <path
         fill="none"
         stroke="black"
         d="M784.5,-0.5C784.5,-0.5 915.5,-0.5 915.5,-0.5 921.5,-0.5 927.5,-6.5 927.5,-12.5 927.5,-12.5 927.5,-94.5 927.5,-94.5 927.5,-100.5 921.5,-106.5 915.5,-106.5 915.5,-106.5 784.5,-106.5 784.5,-106.5 778.5,-106.5 772.5,-100.5 772.5,-94.5 772.5,-94.5 772.5,-12.5 772.5,-12.5 772.5,-6.5 778.5,-0.5 784.5,-0.5"
         id="path196" />
      <text
         text-anchor="middle"
         x="850"
         y="-91.3"
         font-family="Times,serif"
         font-size="14.00"
         id="text198">Faalis::Permission</text>
      <polyline
         fill="none"
         stroke="black"
         points="772.5,-83.5 927.5,-83.5 "
         id="polyline200" />
      <text
         text-anchor="start"
         x="780.5"
         y="-68.3"
         font-family="Times,serif"
         font-size="14.00"
         id="text202">id :INTEGER</text>
      <text
         text-anchor="start"
         x="780.5"
         y="-53.3"
         font-family="Times,serif"
         font-size="14.00"
         id="text204">model :varchar</text>
      <text
         text-anchor="start"
         x="780.5"
         y="-38.3"
         font-family="Times,serif"
         font-size="14.00"
         id="text206">permission_type :varchar</text>
      <text
         text-anchor="start"
         x="780.5"
         y="-23.3"
         font-family="Times,serif"
         font-size="14.00"
         id="text208">created_at :datetime</text>
      <text
         text-anchor="start"
         x="780.5"
         y="-8.3"
         font-family="Times,serif"
         font-size="14.00"
         id="text210">updated_at :datetime</text>
    </g>
    <!-- Faalis::Group&#45;&gt;Faalis::Permission -->
    <g
       id="edge3"
       class="edge">
      <title
         id="title213">Faalis::Group-&gt;Faalis::Permission</title>
      <path
         fill="none"
         stroke="#98593b"
         d="M806.828,-148.676C805.017,-140.879 804.788,-132.873 807,-125 807.845,-121.992 808.858,-118.984 810.004,-116"
         id="path215" />
      <polygon
         fill="#98593b"
         stroke="#98593b"
         points="806.893,-148.88 805.615,-159.771 808.399,-153.647 809.906,-158.415 809.906,-158.415 809.906,-158.415 808.399,-153.647 814.197,-157.059 806.893,-148.88 806.893,-148.88"
         id="polygon217" />
      <polygon
         fill="#98593b"
         stroke="#98593b"
         points="810.11,-115.753 818.206,-108.356 812.093,-111.163 814.075,-106.572 814.075,-106.572 814.075,-106.572 812.093,-111.163 809.943,-104.789 810.11,-115.753 810.11,-115.753"
         id="polygon219" />
      <text
         text-anchor="middle"
         x="840"
         y="-128.8"
         font-family="Times,serif"
         font-size="14.00"
         id="text221">permissions</text>
    </g>
    <!-- Faalis::UserMessage -->
    <g
       id="node13"
       class="node">
      <title
         id="title224">Faalis::UserMessage</title>
      <path
         fill="none"
         stroke="black"
         d="M2345.5,-391.5C2345.5,-391.5 2452.5,-391.5 2452.5,-391.5 2458.5,-391.5 2464.5,-397.5 2464.5,-403.5 2464.5,-403.5 2464.5,-530.5 2464.5,-530.5 2464.5,-536.5 2458.5,-542.5 2452.5,-542.5 2452.5,-542.5 2345.5,-542.5 2345.5,-542.5 2339.5,-542.5 2333.5,-536.5 2333.5,-530.5 2333.5,-530.5 2333.5,-403.5 2333.5,-403.5 2333.5,-397.5 2339.5,-391.5 2345.5,-391.5"
         id="path226" />
      <text
         text-anchor="middle"
         x="2399"
         y="-527.3"
         font-family="Times,serif"
         font-size="14.00"
         id="text228">Faalis::UserMessage</text>
      <polyline
         fill="none"
         stroke="black"
         points="2333.5,-519.5 2464.5,-519.5 "
         id="polyline230" />
      <text
         text-anchor="start"
         x="2341.5"
         y="-504.3"
         font-family="Times,serif"
         font-size="14.00"
         id="text232">id :INTEGER</text>
      <text
         text-anchor="start"
         x="2341.5"
         y="-489.3"
         font-family="Times,serif"
         font-size="14.00"
         id="text234">sender_id :integer</text>
      <text
         text-anchor="start"
         x="2341.5"
         y="-474.3"
         font-family="Times,serif"
         font-size="14.00"
         id="text236">receiver_id :integer</text>
      <text
         text-anchor="start"
         x="2341.5"
         y="-459.3"
         font-family="Times,serif"
         font-size="14.00"
         id="text238">read_only :boolean</text>
      <text
         text-anchor="start"
         x="2341.5"
         y="-444.3"
         font-family="Times,serif"
         font-size="14.00"
         id="text240">content :text</text>
      <text
         text-anchor="start"
         x="2341.5"
         y="-429.3"
         font-family="Times,serif"
         font-size="14.00"
         id="text242">raw_content :text</text>
      <text
         text-anchor="start"
         x="2341.5"
         y="-414.3"
         font-family="Times,serif"
         font-size="14.00"
         id="text244">created_at :datetime</text>
      <text
         text-anchor="start"
         x="2341.5"
         y="-399.3"
         font-family="Times,serif"
         font-size="14.00"
         id="text246">updated_at :datetime</text>
    </g>
    <!-- Faalis::Permission&#45;&gt;Faalis::Group -->
    <g
       id="edge4"
       class="edge">
      <title
         id="title249">Faalis::Permission-&gt;Faalis::Group</title>
      <path
         fill="none"
         stroke="#fdf197"
         d="M873.017,-116.453C874.061,-124.325 874.222,-132.315 873,-140 872.569,-142.708 872.051,-145.453 871.463,-148.211"
         id="path251" />
      <polygon
         fill="#fdf197"
         stroke="#fdf197"
         points="873.011,-116.42 875.689,-105.787 872.135,-111.498 871.259,-106.575 871.259,-106.575 871.259,-106.575 872.135,-111.498 866.828,-107.364 873.011,-116.42 873.011,-116.42"
         id="polygon253" />
      <polygon
         fill="#fdf197"
         stroke="#fdf197"
         points="871.398,-148.483 864.684,-157.153 870.228,-153.344 869.059,-158.206 869.059,-158.206 869.059,-158.206 870.228,-153.344 873.434,-159.258 871.398,-148.483 871.398,-148.483"
         id="polygon255" />
      <text
         text-anchor="middle"
         x="891.5"
         y="-128.8"
         font-family="Times,serif"
         font-size="14.00"
         id="text257">groups</text>
    </g>
    <!-- ApplicationRecord -->
    <g
       id="node15"
       class="node">
      <title
         id="title260">ApplicationRecord</title>
      <ellipse
         fill="none"
         stroke="black"
         cx="2560"
         cy="-467"
         rx="77.1866"
         ry="18"
         id="ellipse262" />
      <text
         text-anchor="middle"
         x="2560"
         y="-463.3"
         font-family="Times,serif"
         font-size="14.00"
         id="text264">ApplicationRecord</text>
    </g>
  </g>
</svg>
