<?xml version="1.0" encoding="UTF-8" standalone="no"?>
<!-- Generated by graphviz version 2.38.0 (20140413.2041)
 -->

<!-- Title: controllers_diagram Pages: 1 -->

<svg
   xmlns:dc="http://purl.org/dc/elements/1.1/"
   xmlns:cc="http://creativecommons.org/ns#"
   xmlns:rdf="http://www.w3.org/1999/02/22-rdf-syntax-ns#"
   xmlns:svg="http://www.w3.org/2000/svg"
   xmlns="http://www.w3.org/2000/svg"
   xmlns:sodipodi="http://sodipodi.sourceforge.net/DTD/sodipodi-0.dtd"
   xmlns:inkscape="http://www.inkscape.org/namespaces/inkscape"
   width="549pt"
   height="462pt"
   viewBox="0.00 0.00 548.50 462.00"
   id="svg2"
   version="1.1"
   inkscape:version="0.91 r13725"
   sodipodi:docname="controllers_complete.svg">
  <metadata
     id="metadata147">
    <rdf:RDF>
      <cc:Work
         rdf:about="">
        <dc:format>image/svg+xml</dc:format>
        <dc:type
           rdf:resource="http://purl.org/dc/dcmitype/StillImage" />
      </cc:Work>
    </rdf:RDF>
  </metadata>
  <defs
     id="defs145" />
  <sodipodi:namedview
     pagecolor="#ffffff"
     bordercolor="#666666"
     borderopacity="1"
     objecttolerance="10"
     gridtolerance="10"
     guidetolerance="10"
     inkscape:pageopacity="0"
     inkscape:pageshadow="2"
     inkscape:window-width="1600"
     inkscape:window-height="864"
     id="namedview143"
     showgrid="false"
     inkscape:zoom="1.1558594"
     inkscape:cx="163.30403"
     inkscape:cy="358.16119"
     inkscape:window-x="0"
     inkscape:window-y="36"
     inkscape:window-maximized="0"
     inkscape:current-layer="graph0" />
  <g
     id="graph0"
     class="graph"
     transform="scale(1 1) rotate(0) translate(258.5 293.5)">
    <title
       id="title5">controllers_diagram</title>
    <polygon
       fill="none"
       stroke="none"
       points="-258.5,168.5 -258.5,-293.5 290,-293.5 290,168.5 -258.5,168.5"
       id="polygon7" />
    <!-- _diagram_info -->
    <!-- APIController -->
    <g
       id="node2"
       class="node">
      <title
         id="title23">APIController</title>
      <path
         fill="none"
         stroke="black"
         d="M12,164C12,164 82,164 82,164 88,164 94,158 94,152 94,152 94,82 94,82 94,76 88,70 82,70 82,70 12,70 12,70 6,70 0,76 0,82 0,82 0,152 0,152 0,158 6,164 12,164"
         id="path25" />
      <text
         text-anchor="middle"
         x="47"
         y="85.2"
         font-family="Times,serif"
         font-size="14.00"
         id="text27">APIController</text>
      <polyline
         fill="none"
         stroke="black"
         points="0,93 94,93 "
         id="polyline29" />
      <polyline
         fill="none"
         stroke="black"
         points="0,117 94,117 "
         id="polyline31" />
      <polyline
         fill="none"
         stroke="black"
         points="0,141 94,141 "
         id="polyline33" />
      <text
         text-anchor="start"
         x="8"
         y="156.2"
         font-family="Times,serif"
         font-size="14.00"
         id="text35">_layout</text>
    </g>
    <!-- ApplicationController -->
    <g
       id="node3"
       class="node">
      <title
         id="title38">ApplicationController</title>
      <path
         fill="none"
         stroke="black"
         d="M-153,164C-153,164 -41,164 -41,164 -35,164 -29,158 -29,152 -29,152 -29,82 -29,82 -29,76 -35,70 -41,70 -41,70 -153,70 -153,70 -159,70 -165,76 -165,82 -165,82 -165,152 -165,152 -165,158 -159,164 -153,164"
         id="path40" />
      <text
         text-anchor="middle"
         x="-97"
         y="85.2"
         font-family="Times,serif"
         font-size="14.00"
         id="text42">ApplicationController</text>
      <polyline
         fill="none"
         stroke="black"
         points="-165,93 -29,93 "
         id="polyline44" />
      <polyline
         fill="none"
         stroke="black"
         points="-165,117 -29,117 "
         id="polyline46" />
      <polyline
         fill="none"
         stroke="black"
         points="-165,141 -29,141 "
         id="polyline48" />
      <text
         text-anchor="start"
         x="-157"
         y="156.2"
         font-family="Times,serif"
         font-size="14.00"
         id="text50">_layout</text>
    </g>
    <!-- PostsController -->
    <g
       id="node4"
       class="node">
      <title
         id="title53">PostsController</title>
      <path
         fill="none"
         stroke="black"
         d="M-242.5,-1C-242.5,-1 -165.5,-1 -165.5,-1 -159.5,-1 -153.5,-7 -153.5,-13 -153.5,-13 -153.5,-97 -153.5,-97 -153.5,-103 -159.5,-109 -165.5,-109 -165.5,-109 -242.5,-109 -242.5,-109 -248.5,-109 -254.5,-103 -254.5,-97 -254.5,-97 -254.5,-13 -254.5,-13 -254.5,-7 -248.5,-1 -242.5,-1"
         id="path55" />
      <text
         text-anchor="middle"
         x="-204"
         y="-93.8"
         font-family="Times,serif"
         font-size="14.00"
         id="text57">PostsController</text>
      <polyline
         fill="none"
         stroke="black"
         points="-254.5,-86 -153.5,-86 "
         id="polyline59" />
      <text
         text-anchor="start"
         x="-246.5"
         y="-70.8"
         font-family="Times,serif"
         font-size="14.00"
         id="text61">index</text>
      <text
         text-anchor="start"
         x="-246.5"
         y="-55.8"
         font-family="Times,serif"
         font-size="14.00"
         id="text63">show</text>
      <polyline
         fill="none"
         stroke="black"
         points="-254.5,-48 -153.5,-48 "
         id="polyline65" />
      <polyline
         fill="none"
         stroke="black"
         points="-254.5,-24 -153.5,-24 "
         id="polyline67" />
      <text
         text-anchor="start"
         x="-246.5"
         y="-8.8"
         font-family="Times,serif"
         font-size="14.00"
         id="text69">_layout</text>
    </g>
    <!-- HomeController -->
    <g
       id="node5"
       class="node">
      <title
         id="title72">HomeController</title>
      <path
         fill="none"
         stroke="black"
         d="M192,-181C192,-181 274,-181 274,-181 280,-181 286,-187 286,-193 286,-193 286,-277 286,-277 286,-283 280,-289 274,-289 274,-289 192,-289 192,-289 186,-289 180,-283 180,-277 180,-277 180,-193 180,-193 180,-187 186,-181 192,-181"
         id="path74" />
      <text
         text-anchor="middle"
         x="233"
         y="-273.8"
         font-family="Times,serif"
         font-size="14.00"
         id="text76">HomeController</text>
      <polyline
         fill="none"
         stroke="black"
         points="180,-266 286,-266 "
         id="polyline78" />
      <text
         text-anchor="start"
         x="188"
         y="-250.8"
         font-family="Times,serif"
         font-size="14.00"
         id="text80">index</text>
      <text
         text-anchor="start"
         x="188"
         y="-235.8"
         font-family="Times,serif"
         font-size="14.00"
         id="text82">show</text>
      <polyline
         fill="none"
         stroke="black"
         points="180,-228 286,-228 "
         id="polyline84" />
      <polyline
         fill="none"
         stroke="black"
         points="180,-204 286,-204 "
         id="polyline86" />
      <text
         text-anchor="start"
         x="188"
         y="-188.8"
         font-family="Times,serif"
         font-size="14.00"
         id="text88">_layout</text>
    </g>
    <!-- Dashboard::ApplicationController -->
    <g
       id="node6"
       class="node">
      <title
         id="title91">Dashboard::ApplicationController</title>
      <path
         fill="none"
         stroke="black"
         d="M72,-60.5C72,-60.5 250,-60.5 250,-60.5 256,-60.5 262,-66.5 262,-72.5 262,-72.5 262,-141.5 262,-141.5 262,-147.5 256,-153.5 250,-153.5 250,-153.5 72,-153.5 72,-153.5 66,-153.5 60,-147.5 60,-141.5 60,-141.5 60,-72.5 60,-72.5 60,-66.5 66,-60.5 72,-60.5"
         id="path93" />
      <text
         text-anchor="middle"
         x="161"
         y="-138.3"
         font-family="Times,serif"
         font-size="14.00"
         id="text95">Dashboard::ApplicationController</text>
      <polyline
         fill="none"
         stroke="black"
         points="60,-130.5 262,-130.5 "
         id="polyline97" />
      <text
         text-anchor="start"
         x="68"
         y="-115.3"
         font-family="Times,serif"
         font-size="14.00"
         id="text99">setup_sidebar</text>
      <polyline
         fill="none"
         stroke="black"
         points="60,-107.5 262,-107.5 "
         id="polyline101" />
      <polyline
         fill="none"
         stroke="black"
         points="60,-83.5 262,-83.5 "
         id="polyline103" />
      <text
         text-anchor="start"
         x="68"
         y="-68.3"
         font-family="Times,serif"
         font-size="14.00"
         id="text105">_layout</text>
    </g>
    <!-- Dashboard::PostsController -->
    <g
       id="node7"
       class="node">
      <title
         id="title108">Dashboard::PostsController</title>
      <path
         fill="none"
         stroke="black"
         d="M-123.5,-136C-123.5,-136 19.5,-136 19.5,-136 25.5,-136 31.5,-142 31.5,-148 31.5,-148 31.5,-218 31.5,-218 31.5,-224 25.5,-230 19.5,-230 19.5,-230 -123.5,-230 -123.5,-230 -129.5,-230 -135.5,-224 -135.5,-218 -135.5,-218 -135.5,-148 -135.5,-148 -135.5,-142 -129.5,-136 -123.5,-136"
         id="path110" />
      <text
         text-anchor="middle"
         x="-52"
         y="-214.8"
         font-family="Times,serif"
         font-size="14.00"
         id="text112">Dashboard::PostsController</text>
      <polyline
         fill="none"
         stroke="black"
         points="-135.5,-207 31.5,-207 "
         id="polyline114" />
      <polyline
         fill="none"
         stroke="black"
         points="-135.5,-183 31.5,-183 "
         id="polyline116" />
      <polyline
         fill="none"
         stroke="black"
         points="-135.5,-159 31.5,-159 "
         id="polyline118" />
      <text
         text-anchor="start"
         x="-127.5"
         y="-143.8"
         font-family="Times,serif"
         font-size="14.00"
         id="text120">_layout</text>
    </g>
    <!-- API::V1::PostsController -->
    <g
       id="node8"
       class="node">
      <title
         id="title123">API::V1::PostsController</title>
      <path
         fill="none"
         stroke="black"
         d="M132,119.5C132,119.5 262,119.5 262,119.5 268,119.5 274,113.5 274,107.5 274,107.5 274,8.5 274,8.5 274,2.5 268,-3.5 262,-3.5 262,-3.5 132,-3.5 132,-3.5 126,-3.5 120,2.5 120,8.5 120,8.5 120,107.5 120,107.5 120,113.5 126,119.5 132,119.5"
         id="path125" />
      <text
         text-anchor="middle"
         x="197"
         y="11.7"
         font-family="Times,serif"
         font-size="14.00"
         id="text127">API::V1::PostsController</text>
      <polyline
         fill="none"
         stroke="black"
         points="120,19.5 274,19.5 "
         id="polyline129" />
      <text
         text-anchor="start"
         x="128"
         y="34.7"
         font-family="Times,serif"
         font-size="14.00"
         id="text131">index</text>
      <text
         text-anchor="start"
         x="128"
         y="49.7"
         font-family="Times,serif"
         font-size="14.00"
         id="text133">show</text>
      <polyline
         fill="none"
         stroke="black"
         points="120,57.5 274,57.5 "
         id="polyline135" />
      <polyline
         fill="none"
         stroke="black"
         points="120,81.5 274,81.5 "
         id="polyline137" />
      <text
         text-anchor="start"
         x="128"
         y="96.7"
         font-family="Times,serif"
         font-size="14.00"
         id="text139">_layout</text>
      <text
         text-anchor="start"
         x="128"
         y="111.7"
         font-family="Times,serif"
         font-size="14.00"
         id="text141">not_found</text>
    </g>
  </g>
</svg>
